<svg width="43" height="57" viewBox="0 0 43 57" fill="none" xmlns="http://www.w3.org/2000/svg">
<path d="M16.9453 4.16026C14.2031 6.44542 11.918 8.41417 11.8477 8.53135C11.7891 8.64854 11.4375 12.1993 11.0742 16.4181C10.7227 20.6368 10.3828 24.2696 10.3359 24.4923C10.2539 24.8556 9.92578 25.1368 7.20703 27.1993C5.23828 28.6876 4.125 29.5899 4.06641 29.7774C3.94922 30.1524 0 55.5704 0 55.9571C0 56.1212 0.105469 56.3556 0.234375 56.4845C0.46875 56.7189 0.621094 56.7189 21.4219 56.7189C45.1172 56.7189 42.8906 56.8243 42.8906 55.7462C42.8906 55.4064 42.7266 53.379 42.5391 51.2228C42.1641 46.9337 42.1523 46.8751 41.4258 46.8751C40.9102 46.8751 40.6641 47.1798 40.6641 47.8478C40.6641 48.3751 41.0508 53.1564 41.2031 54.4571L41.2617 55.0782H39.0469H36.8203L36.7617 54.586C36.5742 53.2618 33.4805 16.629 33.5508 16.5704C33.5977 16.5118 37.2305 19.4532 38.0859 20.2267C38.2031 20.3439 38.3203 21.1524 38.4961 23.2618C38.707 25.6524 38.7891 26.1681 38.9648 26.3673C39.2461 26.6837 39.8555 26.672 40.1484 26.3556C40.3594 26.1212 40.3594 26.0509 40.1016 22.9337C39.8906 20.379 39.7969 19.6993 39.6328 19.4884C39.5273 19.3478 38.0625 18.0939 36.3867 16.6876C34.7109 15.2931 33.3164 14.1329 33.3047 14.1212C33.2812 14.0978 33.1641 12.9024 33.0352 11.461C32.9062 10.0196 32.7539 8.73057 32.6953 8.58995C32.6367 8.44932 30.3398 6.45713 27.5859 4.16026C23.6602 0.890728 22.5117 0.000102997 22.2656 0.000102997C22.0078 0.000102997 20.8711 0.890728 16.9453 4.16026ZM21.4453 5.53135V8.4962L17.2148 11.1798C14.8945 12.6564 12.9844 13.8399 12.9609 13.8165C12.9492 13.7931 13.0078 12.7853 13.1133 11.5782C13.2773 9.67979 13.3359 9.35167 13.5352 9.15245C13.793 8.90636 21.375 2.57823 21.4219 2.57823C21.4336 2.57823 21.4453 3.91417 21.4453 5.53135ZM27.3281 6.07042C29.8008 8.1212 31.1836 9.35167 31.2187 9.52745C31.2539 9.66807 32.1211 19.6993 33.1641 31.8165C34.1953 43.9337 35.0742 54.129 35.1094 54.4571L35.1797 55.0782H29.1328H23.0859V28.8165C23.0859 3.87901 23.0977 2.55479 23.2852 2.70713C23.4023 2.80088 25.2187 4.3126 27.3281 6.07042ZM21.4453 13.7931V17.1681L16.8398 20.1095C14.3203 21.7267 12.2227 23.004 12.1992 22.9337C12.1172 22.711 12.6914 16.3478 12.8203 16.0782C12.9023 15.9142 14.6367 14.7423 17.168 13.1251C19.4883 11.6485 21.3984 10.4298 21.4219 10.4298C21.4336 10.4298 21.4453 11.9415 21.4453 13.7931ZM21.4453 22.4884V25.8634L16.4531 29.0509C13.6992 30.797 11.4258 32.2149 11.4023 32.1798C11.2734 32.0509 11.9531 25.1485 12.1055 25.0548C12.1758 25.0079 14.3086 23.6603 16.8164 22.0431C19.3359 20.4376 21.3984 19.1134 21.4219 19.1134C21.4336 19.1017 21.4453 20.6251 21.4453 22.4884ZM10.125 27.4454C10.0781 27.8204 9.71484 31.8868 9.48047 34.7462C9.1875 38.297 7.85156 53.9181 7.78125 54.4571L7.72266 55.0782H4.73437C3.09375 55.0782 1.75781 55.0431 1.75781 54.9845C1.75781 54.7149 5.51953 30.8321 5.58984 30.6212C5.67187 30.3985 9.86719 27.1056 10.1016 27.0821C10.1484 27.0704 10.1602 27.2462 10.125 27.4454ZM21.3633 34.5821C21.1992 34.7462 10.6172 41.4728 10.582 41.4376C10.5469 41.4024 11.1094 34.5939 11.168 34.4181C11.1797 34.3712 13.4883 32.8595 16.2891 31.0782L21.3867 27.8204L21.4219 31.1603C21.4336 33.0001 21.4102 34.5353 21.3633 34.5821ZM21.4219 39.9259L21.3867 43.3009L15.5859 47.004C12.3984 49.0431 9.77344 50.7071 9.76172 50.6954C9.71484 50.6603 10.3359 43.7462 10.4062 43.6173C10.4883 43.4767 21.1875 36.586 21.3633 36.5743C21.4102 36.5626 21.4336 38.0743 21.4219 39.9259ZM21.4453 50.1564V55.0782H15.4102H9.375L9.44531 54.047C9.49219 53.4845 9.57422 52.9337 9.65625 52.8282C9.75 52.6642 21.2695 45.2345 21.4102 45.2345C21.4336 45.2345 21.4453 47.4493 21.4453 50.1564Z" fill="#556B2F"/>
<path d="M39.6312 30.8442C39.2562 31.0317 39.2093 31.3715 39.3382 32.9067C39.4437 34.0903 39.4788 34.2778 39.7132 34.477C40.0765 34.7583 40.4398 34.7465 40.7679 34.4301C41.0374 34.1958 41.0374 34.1372 40.9671 32.9418C40.8734 31.5239 40.7327 30.9848 40.428 30.8208C40.1585 30.6801 39.9827 30.6801 39.6312 30.8442Z" fill="#556B2F"/>
<path d="M40.3727 38.8127C40.0094 39.0119 39.9625 39.1408 39.9742 39.9026C39.9742 41.3205 40.15 42.3401 40.4312 42.5627C40.7828 42.844 41.0641 42.8322 41.4391 42.5041L41.7555 42.2229L41.6383 40.7112C41.5211 39.3049 41.4859 39.1877 41.193 38.9416C40.8531 38.6369 40.7125 38.6135 40.3727 38.8127Z" fill="#556B2F"/>
</svg>
